<?xml version="1.0" encoding="utf-8"?>
<!-- Svg Vector Icons : http://www.onlinewebfonts.com/icon -->
<!DOCTYPE svg PUBLIC "-//W3C//DTD SVG 1.1//EN" "http://www.w3.org/Graphics/SVG/1.1/DTD/svg11.dtd">
<svg version="1.1" xmlns="http://www.w3.org/2000/svg" xmlns:xlink="http://www.w3.org/1999/xlink" x="0px" y="0px" viewBox="0 0 1000 1000" enable-background="new 0 0 1000 1000" xml:space="preserve">
<metadata> Svg Vector Icons : http://www.onlinewebfonts.com/icon </metadata>
<g><g transform="translate(0.000000,511.000000) scale(0.100000,-0.100000)"><path d="M100,110v-4910.6h4900h4900v255.1v255.1H5265.7H631.5V365.1v4655.5H365.7H100V110z"/><path d="M6313.7,3468.8c-104.2-53.1-210.4-167.9-255.1-272.1c-19.1-44.6-27.6-127.5-25.5-214.7l6.4-140.3l-792.9-463.4l-790.8-463.4l-76.5,68c-106.3,93.5-208.3,131.8-348.6,131.8c-146.7,0-291.2-63.8-380.5-172.2c-76.5-91.4-131.8-265.7-123.3-376.3l6.4-76.5l-686.6-246.6l-686.6-246.6l-76.5,78.6c-112.7,114.8-221.1,163.7-363.5,163.7c-161.6,2.1-284.9-51-382.6-163.7c-140.3-157.3-170.1-361.4-80.8-552.7c87.2-187.1,250.9-284.9,471.9-284.9c244.5,2.1,463.4,208.3,480.4,454.9c6.4,89.3-76.5,55.3,839.7,365.6l620.7,208.3l48.9-44.6c182.8-172.2,552.7-136,707.9,65.9c65.9,87.2,116.9,229.6,116.9,329.5v76.5l807.8,486.8l807.8,486.8l48.9-44.6c155.2-144.6,480.4-150.9,635.6-10.6c25.5,23.4,46.8,27.6,63.8,12.7c14.9-12.7,363.5-267.8,771.7-569.7c410.3-299.7,761-563.3,780.2-582.5c29.7-27.6,34-48.9,17-119c-48.9-208.3,55.3-425.2,253-525.1c189.2-95.7,369.9-72.3,525.1,72.3c174.3,159.4,206.2,401.8,80.8,605.9c-131.8,212.6-437.9,284.9-644.1,148.8l-85-57.4l-792.9,591l-792.9,591v204.1c0,193.4-4.2,208.3-63.8,295.5c-36.1,51-106.3,121.2-155.2,157.3c-78.7,53.1-114.8,63.8-244.5,70.1C6432.8,3511.3,6386,3504.9,6313.7,3468.8z"/><path d="M6315.9,994.3C6137.3,911.4,6031,735,6031,524.5v-119L5253,22.9L4477-359.8l-106.3,95.7c-244.5,219-599.5,163.7-763.2-121.2c-51-91.4-63.8-133.9-63.8-244.5c0-72.3,12.8-165.8,29.8-204.1l29.8-70.2L2867.8-1444c-403.9-297.6-746.2-546.3-761-557c-14.9-8.5-72.3,12.8-136,53.1c-95.7,59.5-129.7,68-250.8,68c-153.1,0-246.6-36.1-350.8-133.9c-202-184.9-210.5-518.7-21.3-714.3c248.7-257.2,654.7-193.4,818.4,125.4c46.8,91.4,61.6,253,31.9,357.1c-14.9,55.3,8.5,74.4,771.7,620.7l788.7,561.2l97.8-42.5c284.9-125.4,646.2,85,682.4,397.5l10.6,97.8l807.8,403.9l805.7,403.9l46.8-42.5C6328.6,42,6590.1,3.7,6730.4,76l72.3,38.3l858.8-856.7c769.6-769.6,856.7-865.2,846.1-912c-8.5-29.8-19.1-116.9-25.5-193.4c-12.7-167.9,27.6-265.7,159.4-384.8c293.4-265.7,769.6-44.6,769.6,359.3c-2.1,280.6-195.6,474-471.9,474c-61.6,0-148.8-17-193.4-38.3l-82.9-36.1l-684.5,690.9C7602-402.3,7219.4-13.3,7125.8,82.4L6960,258.8l38.3,82.9c46.8,106.3,46.8,284.9,0,397.5C6887.7,1005,6583.7,1117.6,6315.9,994.3z"/></g></g>
</svg>