<?xml version="1.0" encoding="iso-8859-1"?>
<!-- Generator: Adobe Illustrator 19.0.0, SVG Export Plug-In . SVG Version: 6.00 Build 0)  -->
<svg version="1.1" id="Layer_1" xmlns="http://www.w3.org/2000/svg" xmlns:xlink="http://www.w3.org/1999/xlink" x="0px" y="0px"
	 viewBox="0 0 512 512" style="enable-background:new 0 0 512 512;" xml:space="preserve">
<path d="M509.561,314.624L487.29,292.07c-1.642-1.662-3.801-2.502-5.967-2.516c-0.541-0.003-1.083,0.045-1.616,0.144
	c-1.068,0.2-2.104,0.607-3.046,1.22c-0.47,0.307-0.918,0.665-1.333,1.076c-0.624,0.616-1.131,1.304-1.522,2.038
	c-0.26,0.489-0.47,0.999-0.629,1.521c-0.158,0.522-0.265,1.057-0.32,1.596c-0.138,1.348,0.047,2.721,0.555,3.997
	c0.304,0.766,0.726,1.495,1.263,2.164c0.179,0.222,0.371,0.439,0.576,0.646l8.052,8.153H8.458c-4.671,0-8.458,3.786-8.458,8.458
	s3.787,8.458,8.458,8.458h474.846l-8.052,8.153c-0.205,0.207-0.397,0.423-0.576,0.646c-0.538,0.668-0.959,1.398-1.263,2.164
	c-0.509,1.275-0.692,2.65-0.555,3.997c0.055,0.539,0.161,1.074,0.32,1.596c0.396,1.305,1.113,2.533,2.152,3.559
	c0.412,0.407,0.856,0.763,1.322,1.068c1.399,0.915,3.01,1.371,4.62,1.371c0.546,0,1.09-0.053,1.628-0.158
	c0.268-0.053,0.536-0.118,0.798-0.196c0.527-0.158,1.041-0.367,1.536-0.629c0.247-0.131,0.488-0.275,0.724-0.432
	c0.471-0.315,0.918-0.681,1.332-1.101l22.271-22.554C512.813,323.215,512.813,317.917,509.561,314.624z"/>
<g>
	<path style="fill:#F77935;" d="M404.689,369.697c-1.157,0-2.332-0.239-3.455-0.742c-4.262-1.911-6.169-6.916-4.257-11.178
		l17.397-38.8c1.911-4.263,6.921-6.165,11.178-4.257c4.262,1.911,6.169,6.916,4.257,11.178l-17.398,38.8
		C411.003,367.836,407.919,369.697,404.689,369.697z"/>
	<path style="fill:#F77935;" d="M365.915,456.183c-3.287,0-6.278-1.904-7.667-4.887L242.683,203.134l-25.161,35.541
		c-1.748,2.467-4.68,3.821-7.695,3.533c-3.012-0.283-5.644-2.155-6.902-4.909l-41.388-90.661l-22.053,44.286
		c-2.083,4.183-7.16,5.883-11.341,3.801c-4.182-2.083-5.883-7.161-3.801-11.341l29.955-60.156c1.454-2.918,4.478-4.768,7.713-4.687
		c3.26,0.055,6.198,1.979,7.551,4.945l42.646,93.417l25.088-35.436c1.741-2.46,4.657-3.806,7.664-3.536
		c3.003,0.272,5.634,2.12,6.906,4.854l113.904,244.592l17.457-38.937c1.911-4.263,6.921-6.165,11.178-4.257
		c4.262,1.91,6.169,6.916,4.257,11.178l-25.029,55.826c-1.354,3.021-4.346,4.973-7.657,4.998
		C365.955,456.183,365.934,456.183,365.915,456.183z"/>
	<path style="fill:#F77935;" d="M67.302,325.352c-1.266,0-2.553-0.286-3.763-0.889c-4.182-2.083-5.883-7.161-3.801-11.341
		l50.551-101.515c2.083-4.182,7.161-5.881,11.341-3.801c4.182,2.083,5.883,7.161,3.801,11.341L74.879,320.662
		C73.4,323.634,70.409,325.352,67.302,325.352z"/>
</g>
<path d="M65.903,127.6c-4.671,0-8.458,3.786-8.458,8.458v367.484c0,4.672,3.787,8.458,8.458,8.458s8.458-3.786,8.458-8.458V136.058
	C74.36,131.386,70.574,127.6,65.903,127.6z"/>
<path d="M94.4,24.711L71.846,2.44c-3.294-3.253-8.591-3.253-11.885,0L37.407,24.711c-3.324,3.282-3.358,8.637-0.076,11.96
	s8.637,3.359,11.96,0.076l8.153-8.052v73.53c0,4.672,3.787,8.458,8.458,8.458s8.458-3.786,8.458-8.458V28.696l8.153,8.052
	c1.648,1.627,3.796,2.439,5.942,2.439c2.183,0,4.364-0.839,6.019-2.515C97.757,33.348,97.724,27.993,94.4,24.711z"/>
<g>
</g>
<g>
</g>
<g>
</g>
<g>
</g>
<g>
</g>
<g>
</g>
<g>
</g>
<g>
</g>
<g>
</g>
<g>
</g>
<g>
</g>
<g>
</g>
<g>
</g>
<g>
</g>
<g>
</g>
</svg>
