<?xml version="1.0" encoding="UTF-8" standalone="no"?>
<!-- Generator: Adobe Illustrator 19.0.0, SVG Export Plug-In . SVG Version: 6.00 Build 0)  -->

<svg
   xmlns:dc="http://purl.org/dc/elements/1.1/"
   xmlns:cc="http://creativecommons.org/ns#"
   xmlns:rdf="http://www.w3.org/1999/02/22-rdf-syntax-ns#"
   xmlns:svg="http://www.w3.org/2000/svg"
   xmlns="http://www.w3.org/2000/svg"
   xmlns:sodipodi="http://sodipodi.sourceforge.net/DTD/sodipodi-0.dtd"
   xmlns:inkscape="http://www.inkscape.org/namespaces/inkscape"
   version="1.1"
   id="Layer_1"
   x="0px"
   y="0px"
   viewBox="0 0 512 512"
   style="enable-background:new 0 0 512 512;"
   xml:space="preserve"
   sodipodi:docname="plotjuggler.svg"
   inkscape:version="0.92.3 (2405546, 2018-03-11)"><metadata
   id="metadata3851"><rdf:RDF><cc:Work
       rdf:about=""><dc:format>image/svg+xml</dc:format><dc:type
         rdf:resource="http://purl.org/dc/dcmitype/StillImage" /></cc:Work></rdf:RDF></metadata><defs
   id="defs3849" /><sodipodi:namedview
   pagecolor="#ffffff"
   bordercolor="#666666"
   borderopacity="1"
   objecttolerance="10"
   gridtolerance="10"
   guidetolerance="10"
   inkscape:pageopacity="0"
   inkscape:pageshadow="2"
   inkscape:window-width="2493"
   inkscape:window-height="1385"
   id="namedview3847"
   showgrid="false"
   inkscape:zoom="1.1757813"
   inkscape:cx="568.10266"
   inkscape:cy="162.8587"
   inkscape:window-x="67"
   inkscape:window-y="27"
   inkscape:window-maximized="1"
   inkscape:current-layer="Layer_1" />
<path
   d="m 506.2268,314.624 -29.32568,-27.36515 c -1.60787,-1.662 -3.72203,-2.502 -5.843,-2.516 -0.52977,-0.003 -1.06051,0.045 -1.58244,0.144 -1.04582,0.2 -2.06028,0.607 -2.98272,1.22 -0.46023,0.307 -0.89892,0.665 -1.3053,1.076 -0.61103,0.616 -1.10749,1.304 -1.49037,2.038 -0.25459,0.489 -0.46023,0.999 -0.61593,1.521 -0.15473,0.522 -0.2595,1.057 -0.31334,1.596 -0.13514,1.348 0.046,2.721 0.54345,3.997 0.2977,0.766 0.71092,1.495 1.23676,2.164 0.17528,0.222 0.36329,0.439 0.56404,0.646 l 15.4021,12.96415 H 15.535437 c -4.573949,0 -8.2822653,3.786 -8.2822653,8.458 0,4.672 3.7083163,8.458 8.2822653,8.458 H 480.51535 l -14.50001,12.66345 c -0.20075,0.207 -0.38876,0.423 -0.56403,0.646 -0.52683,0.668 -0.93908,1.398 -1.23677,2.164 -0.49842,1.275 -0.67762,2.65 -0.54346,3.997 0.0538,0.539 0.15764,1.074 0.31334,1.596 0.38777,1.305 1.08988,2.533 2.1073,3.559 0.40344,0.407 0.83821,0.763 1.29453,1.068 1.36992,0.915 2.94746,1.371 4.52401,1.371 0.53466,0 1.06735,-0.053 1.59417,-0.158 0.26243,-0.053 0.52486,-0.118 0.78142,-0.196 0.51605,-0.158 1.01937,-0.367 1.50408,-0.629 0.24188,-0.131 0.47787,-0.275 0.70896,-0.432 0.46122,-0.315 0.89894,-0.681 1.30432,-1.101 L 506.2268,326.509 c 3.18443,-3.294 3.18443,-8.592 0,-11.885 z"
   id="path3802"
   style="stroke:#000000;stroke-width:3.76197553;stroke-miterlimit:4;stroke-dasharray:none;stroke-opacity:1"
   inkscape:connector-curvature="0"
   sodipodi:nodetypes="cccccccccccccsssccccccccsccccccc" />



<g
   id="g3816">
</g>
<g
   id="g3818">
</g>
<g
   id="g3820">
</g>
<g
   id="g3822">
</g>
<g
   id="g3824">
</g>
<g
   id="g3826">
</g>
<g
   id="g3828">
</g>
<g
   id="g3830">
</g>
<g
   id="g3832">
</g>
<g
   id="g3834">
</g>
<g
   id="g3836">
</g>
<g
   id="g3838">
</g>
<g
   id="g3840">
</g>
<g
   id="g3842">
</g>
<g
   id="g3844">
</g>
<path
   style="fill:none;fill-opacity:1;stroke:#007fd1;stroke-width:22.67716535;stroke-linecap:round;stroke-linejoin:round;stroke-miterlimit:4;stroke-dasharray:none;stroke-opacity:1"
   d="m 89.842769,268.2173 c 2.181814,-2.5482 100.799791,-131.59726 100.799791,-131.59726 0,0 142.25424,70.01591 147.4906,68.31711 5.23635,-1.6988 109.9634,-53.08737 109.9634,-53.08737"
   id="path3853"
   inkscape:connector-curvature="0"
   sodipodi:nodetypes="ccsc" /><path
   style="fill:none;stroke:#cf65c2;stroke-width:22.67716535;stroke-linecap:round;stroke-linejoin:round;stroke-miterlimit:35.70000076;stroke-dasharray:none;stroke-opacity:1"
   d="m 94.95401,405.68771 146.45397,38.27242 86.19863,-72.29236 114.65253,24.66446"
   id="path4676"
   inkscape:connector-curvature="0" /><path
   d="m 49.623167,7.969337 -27.365148,29.32568 c -1.662,1.60787 -2.502,3.72203 -2.516,5.843 -0.003,0.52977 0.045,1.06051 0.144,1.58244 0.2,1.04582 0.607,2.06028 1.22,2.98272 0.307,0.46023 0.665,0.89892 1.076,1.3053 0.616,0.61103 1.304,1.10749 2.038,1.49037 0.489,0.25459 0.998998,0.46023 1.520998,0.61593 0.522,0.15473 1.057,0.2595 1.596,0.31334 1.348,0.13514 2.721,-0.046 3.997,-0.54345 0.766,-0.2977 1.495,-0.71092 2.164,-1.23676 0.222,-0.17528 0.439,-0.36329 0.646,-0.56404 l 12.96415,-15.4021 V 498.6607 c 0,4.57395 3.786,8.28227 8.458,8.28227 4.672,0 8.458,-3.70832 8.458,-8.28227 V 33.680787 l 12.66345,14.50001 c 0.207,0.20075 0.423,0.38876 0.646,0.56403 0.668,0.52683 1.398,0.93908 2.164,1.23677 1.275,0.49842 2.65,0.67762 3.997,0.54346 0.539,-0.0538 1.074,-0.15764 1.596,-0.31334 1.305,-0.38777 2.533,-1.08988 3.559,-2.1073 0.407,-0.40344 0.763,-0.83821 1.068,-1.29453 0.915,-1.36992 1.371,-2.94746 1.371,-4.52401 0,-0.53466 -0.053,-1.06735 -0.158,-1.59417 -0.053,-0.26243 -0.118,-0.52486 -0.196,-0.78142 -0.158,-0.51605 -0.367,-1.01937 -0.629,-1.50408 -0.131,-0.24188 -0.275,-0.47787 -0.432,-0.70896 -0.315,-0.46122 -0.681,-0.89894 -1.101,-1.30432 L 61.508167,7.969337 c -3.294,-3.1844303 -8.592,-3.1844303 -11.885,0 z"
   id="path3802-6"
   style="stroke:#000000;stroke-width:3.76197553;stroke-miterlimit:4;stroke-dasharray:none;stroke-opacity:1"
   inkscape:connector-curvature="0"
   sodipodi:nodetypes="cccccccccccccsssccccccccsccccccc" /></svg>