<?xml version="1.0" encoding="UTF-8" standalone="no"?>
<svg
   enable-background="new 0 0 24 24"
   height="24px"
   viewBox="0 0 24 24"
   width="24px"
   fill="#000000"
   version="1.1"
   id="svg1"
   sodipodi:docname="reload.svg"
   inkscape:version="1.3.1 (9b9bdc1480, 2023-11-25, custom)"
   xmlns:inkscape="http://www.inkscape.org/namespaces/inkscape"
   xmlns:sodipodi="http://sodipodi.sourceforge.net/DTD/sodipodi-0.dtd"
   xmlns="http://www.w3.org/2000/svg"
   xmlns:svg="http://www.w3.org/2000/svg">
  <defs
     id="defs1" />
  <sodipodi:namedview
     id="namedview1"
     pagecolor="#ffffff"
     bordercolor="#000000"
     borderopacity="0.25"
     inkscape:showpageshadow="2"
     inkscape:pageopacity="0.0"
     inkscape:pagecheckerboard="0"
     inkscape:deskcolor="#d1d1d1"
     inkscape:zoom="47.708333"
     inkscape:cx="12"
     inkscape:cy="12"
     inkscape:window-width="2490"
     inkscape:window-height="1369"
     inkscape:window-x="1990"
     inkscape:window-y="34"
     inkscape:window-maximized="1"
     inkscape:current-layer="svg1" />
  <rect
     fill="none"
     height="24"
     width="24"
     id="rect1" />
  <path
     d="m 17.099557,10.182159 -6.094358,6.137029 c -0.419929,0.42287 -1.0982759,0.42287 -1.5182049,0 L 6.4398142,13.250673 c -0.4199292,-0.422869 -0.4199292,-1.105966 0,-1.528836 v 0 c 0.4199293,-0.422869 1.0982766,-0.422869 1.5182058,0 l 2.282693,2.298676 5.329871,-5.36719 c 0.419929,-0.4228695 1.098277,-0.4228695 1.518206,0 v 0 c 0.430697,0.4228695 0.430697,1.1059664 0.01077,1.528836 z M 3.1557521,12.101336 c 0,-2.5263743 1.0982765,-4.7925212 2.8210632,-6.3755712 L 7.6242301,7.3847144 C 7.95802,7.7208415 8.5394605,7.4822994 8.5394605,6.9943734 V 2.3428087 c 0,-0.3035987 -0.2368831,-0.5421404 -0.5383708,-0.5421404 H 3.3818678 c -0.4845337,0 -0.7214169,0.5855116 -0.3768596,0.9216387 l 1.4428339,1.4637791 c -2.1104137,1.973391 -3.4455734,4.7816783 -3.4455734,7.9152499 0,5.150334 3.5747824,9.465771 8.3555164,10.571738 0.6783469,0.151799 1.3351589,-0.357813 1.3351589,-1.062596 v 0 c 0,-0.509612 -0.355325,-0.943324 -0.8506259,-1.062595 -3.8224331,-0.878267 -6.686566,-4.32628 -6.686566,-8.446547 z m 19.3813509,0 c 0,-5.1503339 -3.574783,-9.4657715 -8.355516,-10.5717379 -0.678347,-0.1517993 -1.335159,0.3578126 -1.335159,1.0625952 v 0 c 0,0.5096119 0.355324,0.9433243 0.850626,1.0625952 3.822433,0.8782674 6.686565,4.3262804 6.686565,8.4465475 0,2.526374 -1.098276,4.792521 -2.821063,6.375571 l -1.647415,-1.65895 c -0.333789,-0.336127 -0.91523,-0.09759 -0.91523,0.390341 v 4.651565 c 0,0.303599 0.236883,0.54214 0.538371,0.54214 h 4.619222 c 0.484533,0 0.721417,-0.585511 0.376859,-0.921638 l -1.442834,-1.463779 c 2.110414,-1.973391 3.445574,-4.781679 3.445574,-7.91525 z"
     id="path1"
     style="stroke-width:1.0805" />
</svg>
