<?xml version="1.0" encoding="UTF-8" standalone="no"?>
<svg
   inkscape:export-ydpi="256.65308"
   inkscape:export-xdpi="256.65308"
   inkscape:export-filename="/home/davide.faconti/ws_plotjuggler/src/PlotJuggler/plotter_gui/resources/svg/light/save.png"
   inkscape:version="1.2 (1:1.2+202206011327+fc4e4096c5)"
   sodipodi:docname="save.svg"
   xml:space="preserve"
   style="enable-background:new 0 0 49 49;"
   viewBox="0 0 49 49"
   y="0px"
   x="0px"
   id="Capa_1"
   version="1.1"
   xmlns:inkscape="http://www.inkscape.org/namespaces/inkscape"
   xmlns:sodipodi="http://sodipodi.sourceforge.net/DTD/sodipodi-0.dtd"
   xmlns="http://www.w3.org/2000/svg"
   xmlns:svg="http://www.w3.org/2000/svg"
   xmlns:rdf="http://www.w3.org/1999/02/22-rdf-syntax-ns#"
   xmlns:cc="http://creativecommons.org/ns#"
   xmlns:dc="http://purl.org/dc/elements/1.1/"><metadata
   id="metadata1838"><rdf:RDF><cc:Work
       rdf:about=""><dc:format>image/svg+xml</dc:format><dc:type
         rdf:resource="http://purl.org/dc/dcmitype/StillImage" /><dc:title /></cc:Work></rdf:RDF></metadata><defs
   id="defs1836" /><sodipodi:namedview
   inkscape:document-rotation="0"
   inkscape:current-layer="Capa_1"
   inkscape:window-maximized="1"
   inkscape:window-y="34"
   inkscape:window-x="2008"
   inkscape:cy="14.694537"
   inkscape:cx="15.240803"
   inkscape:zoom="9.1530612"
   inkscape:pagecheckerboard="true"
   showgrid="false"
   id="namedview1834"
   inkscape:window-height="1369"
   inkscape:window-width="2472"
   inkscape:pageshadow="2"
   inkscape:pageopacity="0"
   guidetolerance="10"
   gridtolerance="10"
   objecttolerance="10"
   borderopacity="1"
   bordercolor="#666666"
   pagecolor="#ffffff"
   inkscape:showpageshadow="2"
   inkscape:deskcolor="#d1d1d1" />
<g
   style="fill:#000000;fill-opacity:1;stroke:none"
   id="g1801"
   transform="matrix(0.9354883,0,0,0.91935371,1.6996721,2.2074067)">
	<path
   style="fill:#000000;fill-opacity:1;stroke:none"
   id="path1791"
   d="M 39.914,0 H 37.5 9.5 0.5 v 49 h 7 33 8 V 8.586 Z M 35.5,2 v 14 h -24 V 2 Z M 9.5,47 V 28 h 29 v 19 z m 37,0 h -6 V 26 h -33 v 21 h -5 V 2 h 7 v 16 h 28 V 2 h 1.586 L 46.5,9.414 Z" />
	<path
   style="fill:#000000;fill-opacity:1;stroke:none"
   id="path1793"
   d="m 13.5,33 h 7 c 0.553,0 1,-0.447 1,-1 0,-0.553 -0.447,-1 -1,-1 h -7 c -0.553,0 -1,0.447 -1,1 0,0.553 0.447,1 1,1 z" />
	<path
   style="fill:#000000;fill-opacity:1;stroke:none"
   id="path1795"
   d="m 23.5,35 h -10 c -0.553,0 -1,0.447 -1,1 0,0.553 0.447,1 1,1 h 10 c 0.553,0 1,-0.447 1,-1 0,-0.553 -0.447,-1 -1,-1 z" />
	<path
   style="fill:#000000;fill-opacity:1;stroke:none"
   id="path1797"
   d="m 25.79,35.29 c -0.181,0.189 -0.29,0.45 -0.29,0.71 0,0.26 0.109,0.52 0.29,0.71 0.189,0.18 0.439,0.29 0.71,0.29 0.26,0 0.52,-0.11 0.71,-0.29 0.18,-0.19 0.29,-0.45 0.29,-0.71 0,-0.26 -0.11,-0.521 -0.29,-0.71 -0.37,-0.37 -1.05,-0.37 -1.42,0 z" />
	<path
   style="fill:#000000;fill-opacity:1;stroke:none"
   id="path1799"
   d="m 33.5,4 h -6 v 10 h 6 z m -2,8 h -2 V 6 h 2 z" />
</g>
<g
   id="g1803">
</g>
<g
   id="g1805">
</g>
<g
   id="g1807">
</g>
<g
   id="g1809">
</g>
<g
   id="g1811">
</g>
<g
   id="g1813">
</g>
<g
   id="g1815">
</g>
<g
   id="g1817">
</g>
<g
   id="g1819">
</g>
<g
   id="g1821">
</g>
<g
   id="g1823">
</g>
<g
   id="g1825">
</g>
<g
   id="g1827">
</g>
<g
   id="g1829">
</g>
<g
   id="g1831">
</g>
</svg>
