<?xml version="1.0" encoding="UTF-8" standalone="no"?>
<!-- Generator: Adobe Illustrator 18.0.0, SVG Export Plug-In . SVG Version: 6.00 Build 0)  -->

<svg
   xmlns:dc="http://purl.org/dc/elements/1.1/"
   xmlns:cc="http://creativecommons.org/ns#"
   xmlns:rdf="http://www.w3.org/1999/02/22-rdf-syntax-ns#"
   xmlns:svg="http://www.w3.org/2000/svg"
   xmlns="http://www.w3.org/2000/svg"
   xmlns:sodipodi="http://sodipodi.sourceforge.net/DTD/sodipodi-0.dtd"
   xmlns:inkscape="http://www.inkscape.org/namespaces/inkscape"
   version="1.1"
   id="Capa_1"
   x="0px"
   y="0px"
   viewBox="0 0 212.974 212.974"
   style="enable-background:new 0 0 212.974 212.974;"
   xml:space="preserve"
   inkscape:version="0.91 r13725"
   sodipodi:docname="add_tab.svg"><metadata
     id="metadata3896"><rdf:RDF><cc:Work
         rdf:about=""><dc:format>image/svg+xml</dc:format><dc:type
           rdf:resource="http://purl.org/dc/dcmitype/StillImage" /><dc:title></dc:title></cc:Work></rdf:RDF></metadata><defs
     id="defs3894" /><sodipodi:namedview
     pagecolor="#39ffff"
     bordercolor="#666666"
     borderopacity="1"
     objecttolerance="10"
     gridtolerance="10"
     guidetolerance="10"
     inkscape:pageopacity="0"
     inkscape:pageshadow="2"
     inkscape:window-width="1855"
     inkscape:window-height="1056"
     id="namedview3892"
     showgrid="false"
     inkscape:zoom="2.216233"
     inkscape:cx="121.43887"
     inkscape:cy="151.11838"
     inkscape:window-x="65"
     inkscape:window-y="24"
     inkscape:window-maximized="1"
     inkscape:current-layer="layer1" /><g
     inkscape:groupmode="layer"
     id="layer1"
     inkscape:label="back"><rect
       style="enable-background:new 0 0 212.97399999999998954 212.97399999999998954;fill:#ffffff"
       id="rect3941"
       width="200.33995"
       height="179.1328"
       x="4.5121608"
       y="15.341348" /></g><path
     inkscape:connector-curvature="0"
     id="path3858"
     d="m 205.474,10.678 -49.494,0 -49.493,0 -49.494,0 -49.493,0 c -4.142,0 -7.5,3.358 -7.5,7.5 L 0,64.75 0,194.796 c 0,4.142 3.358,7.5 7.5,7.5 l 197.974,0 c 4.142,0 7.5,-3.358 7.5,-7.5 l 0,-176.618 c 0,-4.142 -3.358,-7.5 -7.5,-7.5 z m -7.5,46.572 -34.494,0 0,-31.572 34.494,0 0,31.572 z m -49.494,-31.572 0,31.572 -34.493,0 0,-31.572 34.493,0 z m -83.987,31.572 0,-31.572 34.493,0 0,31.572 -34.493,0 z M 15,187.295 15,64.75 l 0,-39.072 34.493,0 0,39.072 c 0,4.142 3.358,7.5 7.5,7.5 l 49.493,0 49.493,0 41.994,0 0,115.046 -182.973,0 z" /><g
     id="g3862" /><g
     id="g3864" /><g
     id="g3866" /><g
     id="g3868" /><g
     id="g3870" /><g
     id="g3872" /><g
     id="g3874" /><g
     id="g3876" /><g
     id="g3878" /><g
     id="g3880" /><g
     id="g3882" /><g
     id="g3884" /><g
     id="g3886" /><g
     id="g3888" /><g
     id="g3890" /><rect
     style="fill:#000000"
     id="rect3905"
     width="75"
     height="25"
     x="70.840935"
     y="119.12104" /><rect
     style="fill:#000000"
     id="rect3905-5"
     width="75"
     height="25"
     x="-170.15753"
     y="95.34066"
     transform="matrix(0,-1,1,0,0,0)" /></svg>