<?xml version="1.0" encoding="UTF-8" standalone="no"?>
<svg
   xmlns:dc="http://purl.org/dc/elements/1.1/"
   xmlns:cc="http://creativecommons.org/ns#"
   xmlns:rdf="http://www.w3.org/1999/02/22-rdf-syntax-ns#"
   xmlns:svg="http://www.w3.org/2000/svg"
   xmlns="http://www.w3.org/2000/svg"
   xmlns:xlink="http://www.w3.org/1999/xlink"
   xmlns:sodipodi="http://sodipodi.sourceforge.net/DTD/sodipodi-0.dtd"
   xmlns:inkscape="http://www.inkscape.org/namespaces/inkscape"
   id="Layer_1"
   width="2000"
   height="512"
   x="0"
   y="0"
   version="1.1"
   viewBox="0 0 2000 512"
   xml:space="preserve"
   sodipodi:docname="plotjuggler3_banner.svg"
   inkscape:version="1.0.1 (3bc2e813f5, 2020-09-07)"><defs
     id="defs1080"><linearGradient
       inkscape:collect="always"
       id="linearGradient1989"><stop
         style="stop-color:#1177ff;stop-opacity:0.95294118"
         offset="0"
         id="stop1985" /><stop
         style="stop-color:#cc00cc;stop-opacity:1"
         offset="1"
         id="stop1987" /></linearGradient><rect
       x="1796.6295"
       y="72.074783"
       width="223.36625"
       height="274.47419"
       id="rect1979" /><rect
       x="565.6223"
       y="48.555007"
       width="1394.1373"
       height="339.32715"
       id="rect1673" /><rect
       x="711.55703"
       y="341.77577"
       width="1122.4331"
       height="144.13042"
       id="rect1665" /><rect
       x="673.33368"
       y="369.13669"
       width="1136.0308"
       height="70.70441"
       id="rect1659" /><rect
       x="537.29386"
       y="56.250682"
       width="1449.9348"
       height="329.09291"
       id="rect1084" /><linearGradient
       inkscape:collect="always"
       xlink:href="#linearGradient1989"
       id="linearGradient1991"
       x1="1850.427"
       y1="130.99805"
       x2="1962.8708"
       y2="240.65224"
       gradientUnits="userSpaceOnUse" /></defs><sodipodi:namedview
     pagecolor="#ffffff"
     bordercolor="#666666"
     borderopacity="1"
     objecttolerance="10"
     gridtolerance="10"
     guidetolerance="10"
     inkscape:pageopacity="0"
     inkscape:pageshadow="2"
     inkscape:window-width="2493"
     inkscape:window-height="1385"
     id="namedview1078"
     showgrid="false"
     inkscape:zoom="0.931"
     inkscape:cx="1061.1964"
     inkscape:cy="327.5805"
     inkscape:window-x="67"
     inkscape:window-y="27"
     inkscape:window-maximized="1"
     inkscape:current-layer="text1671" /><metadata
     id="metadata45"><rdf:RDF><cc:Work
         rdf:about=""><dc:format>image/svg+xml</dc:format><dc:type
           rdf:resource="http://purl.org/dc/dcmitype/StillImage" /><dc:title></dc:title></cc:Work></rdf:RDF></metadata><path
     style="fill:#444;fill-opacity:1;stroke:#000;stroke-width:.84521616;stroke-opacity:1"
     id="path8"
     d="M 503.22848,468.20892 H 84.084378 c -3.955863,0 -7.160774,-3.18074 -7.160774,-7.10489 V 44.283546 c 0,-3.924154 3.204911,-7.104895 7.160774,-7.104895 3.955863,0 7.160773,3.180741 7.160773,7.104895 V 453.99913 H 503.22848 c 3.95586,0 7.16078,3.18074 7.16078,7.1049 0,3.92415 -3.20492,7.10489 -7.16078,7.10489 z" /><path
     style="fill:none;stroke:#c0c;stroke-width:16.09929085;stroke-linecap:round;stroke-linejoin:round;stroke-miterlimit:4;stroke-dasharray:none;stroke-opacity:1"
     id="path837"
     d="m 488.9097,405.486 c -91.63629,1.53354 -142.951,-60.93976 -162.84463,-126.99712 -10.64468,-35.34598 -33.18448,-108.12895 -78.81312,-108.809 -45.62865,-0.68006 -62.31566,67.28636 -73.97371,95.20789 -8.82921,21.14634 -35.94985,86.36715 -70.517,86.36715" /><path
     style="fill:none;stroke:#17f;stroke-width:16.09929085;stroke-linecap:round;stroke-linejoin:round;stroke-miterlimit:4;stroke-dasharray:none;stroke-opacity:1"
     id="path837-3"
     d="m 102.76121,351.25492 c 91.63629,1.53354 140.33511,-65.90472 168.37538,-129.03728 14.79274,-33.30582 35.09514,-76.62869 72.59103,-78.88653 33.88105,-2.04017 51.25417,37.36388 62.91222,65.28541 8.82921,21.14634 47.01133,105.40873 81.57848,105.40873" /><flowRoot
     id="flowRoot915"
     xml:space="preserve"
     style="font-style:normal;font-weight:400;font-size:64px;line-height:1.25;font-family:'DejaVu Sans';letter-spacing:0;word-spacing:0;fill:#000;fill-opacity:1;stroke:none;-inkscape-font-specification:'DejaVu Sans';font-stretch:normal;font-variant:normal"><flowRegion
       id="flowRegion917"
       style="-inkscape-font-specification:'DejaVu Sans';font-family:'DejaVu Sans';font-weight:400;font-style:normal;font-stretch:normal;font-variant:normal"><rect
         id="rect919"
         width="745.554"
         height="139.6"
         x="722.543"
         y="251.209"
         style="-inkscape-font-specification:'DejaVu Sans';font-family:'DejaVu Sans';font-weight:400;font-style:normal;font-stretch:normal;font-variant:normal" /></flowRegion><flowPara
       id="flowPara921"
       style="text-anchor:middle;text-align:center;line-height:3.25;-inkscape-font-specification:'DejaVu Sans';font-family:'DejaVu Sans';font-weight:400;font-style:normal;font-stretch:normal;font-variant:normal">PlotJuggler</flowPara></flowRoot><text
     xml:space="preserve"
     id="text1082"
     style="font-style:normal;font-weight:normal;font-size:74.6667px;line-height:1.45;font-family:Khula;white-space:pre;shape-inside:url(#rect1084);fill:#444444;fill-opacity:1;stroke:none;-inkscape-font-specification:Khula;font-stretch:normal;font-variant:normal;"
     x="123.30078"
     y="0"
     transform="translate(0,-24.349422)" /><text
     xml:space="preserve"
     id="text1657"
     style="fill:black;fill-opacity:1;line-height:1.25;stroke:none;font-family:Khula;font-style:normal;font-weight:normal;font-size:40px;white-space:pre;shape-inside:url(#rect1659);-inkscape-font-specification:Khula;font-stretch:normal;font-variant:normal;" /><g
     aria-label="Juggle with data"
     transform="translate(-56.623581,-23.398296)"
     id="text1663"
     style="font-style:normal;font-variant:normal;font-weight:300;font-stretch:normal;font-size:96px;line-height:0;font-family:Roboto;-inkscape-font-specification:'Roboto Light';text-align:center;text-anchor:middle;white-space:pre;shape-inside:url(#rect1665);fill:#444444;fill-opacity:1;stroke:none"><path
       d="m 964.10156,376.19936 h 5.8125 v 47.95313 q 0,5.15625 -1.59375,9.14062 -1.54687,3.9375 -4.3125,6.65625 -2.71875,2.67188 -6.51562,4.07813 -3.79688,1.35937 -8.20313,1.35937 -4.64062,0 -8.4375,-1.17187 -3.79687,-1.21875 -6.51562,-3.65625 -2.67188,-2.48438 -4.17188,-6.1875 -1.5,-3.70313 -1.5,-8.71875 h 5.76563 q 0,7.40625 3.89062,11.15625 3.89063,3.70312 10.96875,3.70312 3.09375,0 5.76563,-1.03125 2.71875,-1.07812 4.73437,-3.14062 2.01563,-2.0625 3.14063,-5.10938 1.17187,-3.04687 1.17187,-7.07812 z"
       style="font-style:normal;font-variant:normal;font-weight:300;font-stretch:normal;font-size:96px;line-height:1.55;font-family:Roboto;-inkscape-font-specification:'Roboto Light';text-align:center;text-anchor:middle;fill:#444444;fill-opacity:1"
       id="path1948" /><path
       d="m 1018.1484,438.02749 q -2.3906,3.46875 -6.375,5.4375 -3.9375,1.92187 -9.7968,1.92187 -3.75004,0 -6.79691,-1.03125 -3.04688,-1.07812 -5.25,-3.375 -2.20313,-2.29687 -3.42188,-5.90625 -1.17187,-3.65625 -1.17187,-8.85937 v -32.48438 h 5.57812 v 32.57813 q 0,4.07812 0.9375,6.79687 0.9375,2.71875 2.53125,4.35938 1.59375,1.64062 3.70313,2.34375 2.15626,0.70312 4.54686,0.70312 3.375,0 5.9531,-0.75 2.5782,-0.75 4.4532,-2.10937 1.875,-1.35938 3.0937,-3.1875 1.2188,-1.82813 1.9219,-4.03125 v -36.70313 h 5.625 v 50.71875 h -5.4375 z"
       style="font-style:normal;font-variant:normal;font-weight:300;font-stretch:normal;font-size:96px;line-height:1.55;font-family:Roboto;-inkscape-font-specification:'Roboto Light';text-align:center;text-anchor:middle;fill:#444444;fill-opacity:1"
       id="path1950" /><path
       d="m 1035.9609,418.62124 q 0,-5.90625 1.3125,-10.64063 1.3594,-4.78125 3.8907,-8.15625 2.5312,-3.375 6.1406,-5.20312 3.6562,-1.82813 8.25,-1.82813 5.4375,0 9.3281,2.20313 3.8906,2.15625 6.4219,6.04687 l 0.2812,-7.3125 h 5.25 v 49.82813 q 0,4.92187 -1.4531,8.8125 -1.4531,3.9375 -4.125,6.65625 -2.625,2.71875 -6.375,4.17187 -3.75,1.45313 -8.3906,1.45313 -2.3906,0 -4.875,-0.5625 -2.4844,-0.51563 -4.8281,-1.59375 -2.2969,-1.07813 -4.3594,-2.71875 -2.0625,-1.59375 -3.6094,-3.79688 l 3.1406,-3.375 q 3.0938,3.79688 6.5625,5.53125 3.4688,1.78125 7.5938,1.78125 3.6094,0 6.375,-1.125 2.8125,-1.07812 4.7344,-3.1875 1.9218,-2.0625 2.9062,-5.0625 1.0313,-2.95312 1.0313,-6.75 v -5.90625 q -2.5313,3.51563 -6.4219,5.53125 -3.8906,1.96875 -9.2813,1.96875 -4.5468,0 -8.1562,-1.875 -3.6094,-1.92187 -6.1406,-5.29687 -2.5313,-3.42188 -3.8907,-8.15625 -1.3125,-4.73438 -1.3125,-10.45313 z m 5.6719,0.98437 q 0,4.45313 0.8906,8.29688 0.8907,3.79687 2.7188,6.60937 1.8281,2.8125 4.5937,4.40625 2.8125,1.59375 6.6563,1.59375 2.9062,0 5.2031,-0.70312 2.3438,-0.70313 4.125,-1.92188 1.7813,-1.26562 3.0938,-2.95312 1.3125,-1.6875 2.25,-3.70313 v -23.57812 q -0.7969,-1.96875 -2.0625,-3.75 -1.2188,-1.82813 -3,-3.1875 -1.7344,-1.40625 -4.0782,-2.20313 -2.3437,-0.84375 -5.4375,-0.84375 -3.8906,0 -6.7031,1.64063 -2.8125,1.59375 -4.6406,4.40625 -1.8281,2.8125 -2.7188,6.65625 -0.8906,3.84375 -0.8906,8.25 z"
       style="font-style:normal;font-variant:normal;font-weight:300;font-stretch:normal;font-size:96px;line-height:1.55;font-family:Roboto;-inkscape-font-specification:'Roboto Light';text-align:center;text-anchor:middle;fill:#444444;fill-opacity:1"
       id="path1952" /><path
       d="m 1089.2109,418.62124 q 0,-5.90625 1.3125,-10.64063 1.3594,-4.78125 3.8907,-8.15625 2.5312,-3.375 6.1406,-5.20312 3.6562,-1.82813 8.25,-1.82813 5.4375,0 9.3281,2.20313 3.8906,2.15625 6.4219,6.04687 l 0.2812,-7.3125 h 5.25 v 49.82813 q 0,4.92187 -1.4531,8.8125 -1.4531,3.9375 -4.125,6.65625 -2.625,2.71875 -6.375,4.17187 -3.75,1.45313 -8.3906,1.45313 -2.3906,0 -4.875,-0.5625 -2.4844,-0.51563 -4.8281,-1.59375 -2.2969,-1.07813 -4.3594,-2.71875 -2.0625,-1.59375 -3.6094,-3.79688 l 3.1406,-3.375 q 3.0938,3.79688 6.5625,5.53125 3.4688,1.78125 7.5938,1.78125 3.6094,0 6.375,-1.125 2.8125,-1.07812 4.7344,-3.1875 1.9218,-2.0625 2.9062,-5.0625 1.0313,-2.95312 1.0313,-6.75 v -5.90625 q -2.5313,3.51563 -6.4219,5.53125 -3.8906,1.96875 -9.2813,1.96875 -4.5468,0 -8.1562,-1.875 -3.6094,-1.92187 -6.1406,-5.29687 -2.5313,-3.42188 -3.8907,-8.15625 -1.3125,-4.73438 -1.3125,-10.45313 z m 5.6719,0.98437 q 0,4.45313 0.8906,8.29688 0.8907,3.79687 2.7188,6.60937 1.8281,2.8125 4.5937,4.40625 2.8125,1.59375 6.6563,1.59375 2.9062,0 5.2031,-0.70312 2.3438,-0.70313 4.125,-1.92188 1.7813,-1.26562 3.0938,-2.95312 1.3125,-1.6875 2.25,-3.70313 v -23.57812 q -0.7969,-1.96875 -2.0625,-3.75 -1.2188,-1.82813 -3,-3.1875 -1.7344,-1.40625 -4.0782,-2.20313 -2.3437,-0.84375 -5.4375,-0.84375 -3.8906,0 -6.7031,1.64063 -2.8125,1.59375 -4.6406,4.40625 -1.8281,2.8125 -2.7188,6.65625 -0.8906,3.84375 -0.8906,8.25 z"
       style="font-style:normal;font-variant:normal;font-weight:300;font-stretch:normal;font-size:96px;line-height:1.55;font-family:Roboto;-inkscape-font-specification:'Roboto Light';text-align:center;text-anchor:middle;fill:#444444;fill-opacity:1"
       id="path1954" /><path
       d="m 1150.9922,444.44936 h -5.625 v -72 h 5.625 z"
       style="font-style:normal;font-variant:normal;font-weight:300;font-stretch:normal;font-size:96px;line-height:1.55;font-family:Roboto;-inkscape-font-specification:'Roboto Light';text-align:center;text-anchor:middle;fill:#444444;fill-opacity:1"
       id="path1956" /><path
       d="m 1185.9141,445.38686 q -4.9688,0 -9.1407,-1.82812 -4.1718,-1.875 -7.2187,-5.15625 -3,-3.32813 -4.6875,-7.875 -1.6875,-4.54688 -1.6875,-9.98438 v -2.01562 q 0,-5.85938 1.7344,-10.59375 1.7812,-4.78125 4.7812,-8.10938 3,-3.375 6.8906,-5.20312 3.9375,-1.82813 8.2969,-1.82813 4.8281,0 8.5781,1.73438 3.75,1.73437 6.2813,4.82812 2.5781,3.09375 3.8906,7.35938 1.3125,4.26562 1.3125,9.32812 v 3.42188 h -36.1875 v 1.07812 q 0,4.17188 1.2656,7.875 1.2657,3.65625 3.5625,6.375 2.2969,2.71875 5.4844,4.3125 3.1875,1.54688 7.0781,1.54688 4.5,0 7.9219,-1.64063 3.4688,-1.64062 6.2813,-5.25 l 3.5156,2.67188 q -1.2656,1.82812 -2.9531,3.46875 -1.6407,1.64062 -3.8438,2.85937 -2.2031,1.21875 -4.9687,1.92188 -2.7657,0.70312 -6.1875,0.70312 z m -1.0313,-47.8125 q -3.1875,0 -5.9062,1.21875 -2.7188,1.21875 -4.8282,3.46875 -2.0625,2.25 -3.4218,5.4375 -1.3125,3.14063 -1.7813,6.98438 h 30.4219 v -0.60938 q -0.094,-3.1875 -1.0313,-6.14062 -0.9375,-3 -2.7656,-5.29688 -1.7812,-2.29687 -4.4531,-3.65625 -2.6719,-1.40625 -6.2344,-1.40625 z"
       style="font-style:normal;font-variant:normal;font-weight:300;font-stretch:normal;font-size:96px;line-height:1.55;font-family:Roboto;-inkscape-font-specification:'Roboto Light';text-align:center;text-anchor:middle;fill:#444444;fill-opacity:1"
       id="path1958" /><path
       d="m 1251.5391,432.77749 0.8437,4.35937 1.125,-4.59375 12.1875,-38.8125 h 4.7813 l 12.0468,38.48438 1.3125,5.34375 1.0782,-4.92188 10.4062,-38.90625 h 5.8125 l -14.7656,50.71875 h -4.7813 l -13.0312,-40.21875 -0.6094,-2.76562 -0.6094,2.8125 -12.7968,40.17187 h -4.7813 l -14.7187,-50.71875 h 5.7656 z"
       style="font-style:normal;font-variant:normal;font-weight:300;font-stretch:normal;font-size:96px;line-height:1.55;font-family:Roboto;-inkscape-font-specification:'Roboto Light';text-align:center;text-anchor:middle;fill:#444444;fill-opacity:1"
       id="path1960" /><path
       d="m 1318.0547,444.44936 h -5.625 v -50.71875 h 5.625 z m -6.6094,-65.39062 q 0,-1.59375 1.0313,-2.67188 1.0312,-1.125 2.8125,-1.125 1.7812,0 2.8125,1.125 1.0781,1.07813 1.0781,2.67188 0,1.59375 -1.0781,2.67187 -1.0313,1.07813 -2.8125,1.07813 -1.7813,0 -2.8125,-1.07813 -1.0313,-1.07812 -1.0313,-2.67187 z"
       style="font-style:normal;font-variant:normal;font-weight:300;font-stretch:normal;font-size:96px;line-height:1.55;font-family:Roboto;-inkscape-font-specification:'Roboto Light';text-align:center;text-anchor:middle;fill:#444444;fill-opacity:1"
       id="path1962" /><path
       d="m 1342.0547,380.74624 v 12.98437 h 10.5 v 4.59375 h -10.5 v 33.79688 q 0,2.67187 0.5156,4.3125 0.5625,1.59375 1.4531,2.53125 0.9375,0.89062 2.1094,1.21875 1.2188,0.28125 2.5313,0.28125 1.2656,0 2.4375,-0.14063 1.1718,-0.1875 2.1093,-0.32812 l 0.2344,4.59375 q -1.0312,0.375 -2.7187,0.5625 -1.6407,0.23437 -3.2813,0.23437 -2.3906,0 -4.4531,-0.65625 -2.0156,-0.60937 -3.4688,-2.15625 -1.4531,-1.54687 -2.2968,-4.07812 -0.7969,-2.57813 -0.7969,-6.375 v -33.79688 h -9.3281 v -4.59375 h 9.3281 v -12.98437 z"
       style="font-style:normal;font-variant:normal;font-weight:300;font-stretch:normal;font-size:96px;line-height:1.55;font-family:Roboto;-inkscape-font-specification:'Roboto Light';text-align:center;text-anchor:middle;fill:#444444;fill-opacity:1"
       id="path1964" /><path
       d="m 1369.8516,402.30874 q 1.3125,-2.15625 3.0468,-3.89063 1.7344,-1.78125 3.7969,-3 2.1094,-1.26562 4.5,-1.92187 2.4375,-0.70313 5.1563,-0.70313 3.7968,0 6.7968,1.03125 3,1.03125 5.0625,3.28125 2.1094,2.25 3.1875,5.8125 1.125,3.51563 1.125,8.53125 v 33 h -5.5781 v -33.04687 q 0,-3.9375 -0.8437,-6.5625 -0.8438,-2.625 -2.3907,-4.21875 -1.5468,-1.59375 -3.7968,-2.25 -2.2032,-0.70313 -4.9219,-0.70313 -3,0 -5.4375,1.03125 -2.4375,0.98438 -4.3125,2.67188 -1.875,1.6875 -3.2344,3.89062 -1.3594,2.15625 -2.1562,4.45313 v 34.73437 h -5.5782 v -72 h 5.5782 z"
       style="font-style:normal;font-variant:normal;font-weight:300;font-stretch:normal;font-size:96px;line-height:1.55;font-family:Roboto;-inkscape-font-specification:'Roboto Light';text-align:center;text-anchor:middle;fill:#444444;fill-opacity:1"
       id="path1966" /><path
       d="m 1438.1484,418.62124 q 0,-5.90625 1.3594,-10.64063 1.3594,-4.78125 3.8906,-8.15625 2.5313,-3.375 6.1407,-5.20312 3.6562,-1.82813 8.2031,-1.82813 5.3906,0 9.2344,2.15625 3.8906,2.15625 6.4218,5.95313 v -28.45313 h 5.5782 v 72 h -5.25 l -0.2344,-6.75 q -2.5313,3.60938 -6.4688,5.67188 -3.8906,2.01562 -9.375,2.01562 -4.5,0 -8.1093,-1.875 -3.6094,-1.92187 -6.1407,-5.29687 -2.5312,-3.42188 -3.8906,-8.15625 -1.3594,-4.73438 -1.3594,-10.45313 z m 5.6719,0.98437 q 0,4.45313 0.8906,8.29688 0.8907,3.79687 2.7188,6.60937 1.8281,2.8125 4.5937,4.40625 2.8125,1.59375 6.6563,1.59375 2.8594,0 5.1562,-0.65625 2.3438,-0.70312 4.125,-1.92187 1.8282,-1.21875 3.1407,-2.90625 1.3593,-1.6875 2.2968,-3.65625 v -23.8125 q -0.8437,-1.92188 -2.0625,-3.70313 -1.2187,-1.78125 -3,-3.14062 -1.7812,-1.40625 -4.125,-2.20313 -2.3437,-0.84375 -5.4375,-0.84375 -3.8906,0 -6.7031,1.64063 -2.8125,1.59375 -4.6406,4.40625 -1.8281,2.8125 -2.7188,6.65625 -0.8906,3.84375 -0.8906,8.25 z"
       style="font-style:normal;font-variant:normal;font-weight:300;font-stretch:normal;font-size:96px;line-height:1.55;font-family:Roboto;-inkscape-font-specification:'Roboto Light';text-align:center;text-anchor:middle;fill:#444444;fill-opacity:1"
       id="path1968" /><path
       d="m 1525.8516,444.44936 q -0.4688,-1.3125 -0.75,-3.1875 -0.2344,-1.92187 -0.3282,-3.89062 -1.2656,1.64062 -3,3.09375 -1.7343,1.45312 -3.8906,2.53125 -2.1562,1.07812 -4.7344,1.73437 -2.5781,0.65625 -5.5781,0.65625 -3.7031,0 -6.75,-1.07812 -3,-1.07813 -5.1562,-3 -2.1094,-1.96875 -3.2813,-4.59375 -1.1719,-2.625 -1.1719,-5.71875 0,-3.70313 1.5938,-6.65625 1.5937,-3 4.5937,-5.0625 3,-2.10938 7.2657,-3.1875 4.3125,-1.125 9.6562,-1.125 h 10.4063 v -5.76563 q 0,-5.4375 -3.375,-8.53125 -3.3282,-3.14062 -9.75,-3.14062 -2.9532,0 -5.4375,0.79687 -2.4844,0.79688 -4.3125,2.20313 -1.7813,1.40625 -2.8125,3.28125 -0.9844,1.82812 -0.9844,3.9375 l -5.625,-0.0469 q 0,-2.85937 1.4062,-5.53125 1.4063,-2.67187 3.9375,-4.73437 2.5782,-2.10938 6.1407,-3.375 3.6093,-1.26563 7.9687,-1.26563 4.0313,0 7.4063,1.03125 3.4218,1.03125 5.8593,3.09375 2.4375,2.0625 3.7969,5.15625 1.3594,3.09375 1.3594,7.21875 v 24.5625 q 0,1.3125 0.094,2.71875 0.094,1.40625 0.2813,2.71875 0.2344,1.3125 0.5156,2.53125 0.2813,1.17188 0.6563,2.0625 v 0.5625 z m -17.625,-4.03125 q 3.0468,0 5.625,-0.75 2.625,-0.79687 4.7343,-2.15625 2.1094,-1.35937 3.6563,-3.14062 1.5469,-1.82813 2.4844,-3.9375 v -11.15625 h -9.6094 q -4.3125,0 -7.7344,0.79687 -3.375,0.75 -5.7187,2.20313 -2.3438,1.45312 -3.6094,3.5625 -1.2188,2.0625 -1.2188,4.6875 0,2.0625 0.7969,3.89062 0.7969,1.78125 2.25,3.14063 1.5,1.3125 3.6094,2.10937 2.1094,0.75 4.7344,0.75 z"
       style="font-style:normal;font-variant:normal;font-weight:300;font-stretch:normal;font-size:96px;line-height:1.55;font-family:Roboto;-inkscape-font-specification:'Roboto Light';text-align:center;text-anchor:middle;fill:#444444;fill-opacity:1"
       id="path1970" /><path
       d="m 1553.9297,380.74624 v 12.98437 h 10.5 v 4.59375 h -10.5 v 33.79688 q 0,2.67187 0.5156,4.3125 0.5625,1.59375 1.4531,2.53125 0.9375,0.89062 2.1094,1.21875 1.2188,0.28125 2.5313,0.28125 1.2656,0 2.4375,-0.14063 1.1718,-0.1875 2.1093,-0.32812 l 0.2344,4.59375 q -1.0312,0.375 -2.7187,0.5625 -1.6407,0.23437 -3.2813,0.23437 -2.3906,0 -4.4531,-0.65625 -2.0156,-0.60937 -3.4688,-2.15625 -1.4531,-1.54687 -2.2968,-4.07812 -0.7969,-2.57813 -0.7969,-6.375 v -33.79688 h -9.3281 v -4.59375 h 9.3281 v -12.98437 z"
       style="font-style:normal;font-variant:normal;font-weight:300;font-stretch:normal;font-size:96px;line-height:1.55;font-family:Roboto;-inkscape-font-specification:'Roboto Light';text-align:center;text-anchor:middle;fill:#444444;fill-opacity:1"
       id="path1972" /><path
       d="m 1608.1641,444.44936 q -0.4688,-1.3125 -0.75,-3.1875 -0.2344,-1.92187 -0.3282,-3.89062 -1.2656,1.64062 -3,3.09375 -1.7343,1.45312 -3.8906,2.53125 -2.1562,1.07812 -4.7344,1.73437 -2.5781,0.65625 -5.5781,0.65625 -3.7031,0 -6.75,-1.07812 -3,-1.07813 -5.1562,-3 -2.1094,-1.96875 -3.2813,-4.59375 -1.1719,-2.625 -1.1719,-5.71875 0,-3.70313 1.5938,-6.65625 1.5937,-3 4.5937,-5.0625 3,-2.10938 7.2657,-3.1875 4.3125,-1.125 9.6562,-1.125 h 10.4063 v -5.76563 q 0,-5.4375 -3.375,-8.53125 -3.3282,-3.14062 -9.75,-3.14062 -2.9532,0 -5.4375,0.79687 -2.4844,0.79688 -4.3125,2.20313 -1.7813,1.40625 -2.8125,3.28125 -0.9844,1.82812 -0.9844,3.9375 l -5.625,-0.0469 q 0,-2.85937 1.4062,-5.53125 1.4063,-2.67187 3.9375,-4.73437 2.5782,-2.10938 6.1407,-3.375 3.6093,-1.26563 7.9687,-1.26563 4.0313,0 7.4063,1.03125 3.4218,1.03125 5.8593,3.09375 2.4375,2.0625 3.7969,5.15625 1.3594,3.09375 1.3594,7.21875 v 24.5625 q 0,1.3125 0.094,2.71875 0.094,1.40625 0.2813,2.71875 0.2344,1.3125 0.5156,2.53125 0.2813,1.17188 0.6563,2.0625 v 0.5625 z m -17.625,-4.03125 q 3.0468,0 5.625,-0.75 2.625,-0.79687 4.7343,-2.15625 2.1094,-1.35937 3.6563,-3.14062 1.5469,-1.82813 2.4844,-3.9375 v -11.15625 h -9.6094 q -4.3125,0 -7.7344,0.79687 -3.375,0.75 -5.7187,2.20313 -2.3438,1.45312 -3.6094,3.5625 -1.2188,2.0625 -1.2188,4.6875 0,2.0625 0.7969,3.89062 0.7969,1.78125 2.25,3.14063 1.5,1.3125 3.6094,2.10937 2.1094,0.75 4.7344,0.75 z"
       style="font-style:normal;font-variant:normal;font-weight:300;font-stretch:normal;font-size:96px;line-height:1.55;font-family:Roboto;-inkscape-font-specification:'Roboto Light';text-align:center;text-anchor:middle;fill:#444444;fill-opacity:1"
       id="path1974" /></g><g
     aria-label="PlotJuggler 3"
     transform="translate(-6.5401366,14.131442)"
     id="text1671"
     style="font-style:normal;font-variant:normal;font-weight:normal;font-stretch:normal;font-size:226.667px;line-height:1.25;font-family:Khula;-inkscape-font-specification:Khula;white-space:pre;shape-inside:url(#rect1673);fill:#444444;fill-opacity:1;stroke:none"><path
       d="m 690.99262,181.68103 v 65.63161 h -13.6133 V 86.166558 h 54.89591 q 13.28127,0 23.3529,3.541672 10.18231,3.541675 17.0443,9.960955 6.86199,6.308605 10.29299,15.162785 3.54167,8.85418 3.54167,19.4792 0,11.1784 -3.54167,20.03258 -3.431,8.7435 -10.29299,14.83075 -6.75131,6.08725 -16.93362,9.29689 -10.18231,3.20964 -23.46358,3.20964 z m 0,-11.51043 h 41.28261 q 10.7357,0 18.48311,-2.65626 7.7474,-2.76693 12.6172,-7.52605 4.8698,-4.8698 7.19402,-11.39976 2.32423,-6.52996 2.32423,-14.05601 0,-7.41537 -2.32423,-14.05601 -2.32422,-6.75131 -7.19402,-11.73179 -4.8698,-5.09115 -12.6172,-7.96876 -7.74741,-2.988295 -18.48311,-2.988295 h -41.28261 z"
       style="fill:#1177ff;fill-opacity:0.952941"
       id="path1752" /><path
       d="M 828.56445,247.31264 H 815.28318 V 77.312378 h 13.28127 z"
       style="font-style:normal;font-variant:normal;font-weight:300;font-stretch:normal;font-size:226.667px;font-family:Roboto;-inkscape-font-specification:'Roboto Light';text-align:center;text-anchor:middle;fill:#444444;fill-opacity:1"
       id="path1754" /><path
       d="m 857.34053,185.66541 q 0,-13.05992 3.76302,-24.12764 3.87371,-11.06773 10.84637,-19.03649 6.97267,-8.07944 16.82294,-12.6172 9.85028,-4.53777 21.9141,-4.53777 12.28517,0 22.13545,4.53777 9.96095,4.53776 16.93362,12.6172 6.97267,7.96876 10.73569,19.03649 3.76303,11.06772 3.76303,24.12764 v 3.65235 q 0,13.05991 -3.76303,24.12764 -3.76302,11.06772 -10.73569,19.14716 -6.97267,7.96877 -16.82294,12.50653 -9.85028,4.42709 -22.02478,4.42709 -12.17449,0 -22.02477,-4.42709 -9.85027,-4.53776 -16.93362,-12.50653 -6.97266,-8.07944 -10.84637,-19.14716 -3.76302,-11.06773 -3.76302,-24.12764 z m 13.28127,3.65235 q 0,9.85027 2.65625,18.81513 2.65625,8.85418 7.74741,15.60549 5.09115,6.64064 12.6172,10.62502 7.52606,3.98438 17.26565,3.98438 9.7396,0 17.15498,-3.98438 7.52605,-3.98438 12.6172,-10.62502 5.09116,-6.75131 7.74741,-15.60549 2.65626,-8.96486 2.65626,-18.81513 v -3.65235 q 0,-9.62892 -2.65626,-18.4831 -2.65625,-8.96486 -7.74741,-15.71617 -5.09115,-6.75131 -12.72788,-10.73569 -7.52605,-4.09506 -17.26565,-4.09506 -9.62892,0 -17.15497,4.09506 -7.41538,3.98438 -12.50653,10.73569 -5.09116,6.75131 -7.74741,15.71617 -2.65625,8.85418 -2.65625,18.4831 z"
       style="font-style:normal;font-variant:normal;font-weight:300;font-stretch:normal;font-size:226.667px;font-family:Roboto;-inkscape-font-specification:'Roboto Light';text-align:center;text-anchor:middle;fill:#444444;fill-opacity:1"
       id="path1756" /><path
       d="m 1012.2887,96.902255 v 30.657595 h 24.7917 v 10.84637 h -24.7917 v 79.7983 q 0,6.3086 1.2174,10.18231 1.3282,3.76303 3.431,5.97657 2.2136,2.10287 4.9805,2.87761 2.8776,0.66406 5.9766,0.66406 2.9883,0 5.7552,-0.33203 2.7669,-0.44271 4.9805,-0.77474 l 0.5534,10.84637 q -2.4349,0.88542 -6.4193,1.32813 -3.8737,0.55338 -7.7474,0.55338 -5.6446,0 -10.5144,-1.54948 -4.7591,-1.4388 -8.1901,-5.09115 -3.431,-3.65235 -5.4232,-9.62892 -1.88148,-6.08725 -1.88148,-15.05211 v -79.7983 h -22.02478 v -10.84637 h 22.02478 V 96.902255 Z"
       style="font-style:normal;font-variant:normal;font-weight:300;font-stretch:normal;font-size:226.667px;font-family:Roboto;-inkscape-font-specification:'Roboto Light';text-align:center;text-anchor:middle;fill:#444444;fill-opacity:1"
       id="path1758" /><path
       d="m 1139.0141,86.166558 h 13.724 V 199.38939 q 0,12.1745 -3.763,21.58206 -3.6524,9.29689 -10.1823,15.71617 -6.4193,6.30861 -15.3842,9.62892 -8.9648,3.20964 -19.3685,3.20964 -10.957,0 -19.9219,-2.76693 -8.9648,-2.87761 -15.3841,-8.63282 -6.3086,-5.8659 -9.8503,-14.6094 -3.5417,-8.7435 -3.5417,-20.58597 h 13.6133 q 0,17.48701 9.1863,26.34119 9.1862,8.7435 25.8984,8.7435 7.3047,0 13.6133,-2.4349 6.4193,-2.54558 11.1784,-7.41538 4.7592,-4.86979 7.4154,-12.06382 2.7669,-7.19402 2.7669,-16.71226 z"
       style="fill:#cc00cc;fill-opacity:1"
       id="path1760" /><path
       d="m 1266.625,232.14986 q -5.6445,8.19011 -15.0521,12.83856 -9.2969,4.53776 -23.1315,4.53776 -8.8542,0 -16.0482,-2.4349 -7.194,-2.54557 -12.3959,-7.96876 -5.2018,-5.42318 -8.0794,-13.94533 -2.7669,-8.63283 -2.7669,-20.918 v -76.69934 h 13.1706 v 76.92069 q 0,9.62892 2.2135,16.0482 2.2135,6.41928 5.9766,10.29299 3.763,3.8737 8.7435,5.53386 5.0911,1.66016 10.7357,1.66016 7.9687,0 14.056,-1.77084 6.0872,-1.77083 10.5143,-4.98047 4.4271,-3.20964 7.3047,-7.52606 2.8776,-4.31641 4.5378,-9.51824 v -86.66029 h 13.2813 v 119.75279 h -12.8386 z"
       style="font-style:normal;font-variant:normal;font-weight:300;font-stretch:normal;font-size:226.667px;font-family:Roboto;-inkscape-font-specification:'Roboto Light';text-align:center;text-anchor:middle;fill:#444444;fill-opacity:1"
       id="path1762" /><path
       d="m 1308.6823,186.32947 q 0,-13.94533 3.099,-25.12373 3.2096,-11.28908 9.1862,-19.25784 5.9766,-7.96877 14.4987,-12.28518 8.6329,-4.31641 19.4792,-4.31641 12.8386,0 22.0248,5.20183 9.1862,5.09115 15.1628,14.27737 l 0.6641,-17.26566 h 12.3958 v 117.64992 q 0,11.62111 -3.431,20.80732 -3.431,9.29689 -9.7396,15.71617 -6.1979,6.41928 -15.0521,9.85028 -8.8542,3.43099 -19.8112,3.43099 -5.6446,0 -11.5105,-1.32812 -5.8658,-1.21745 -11.3997,-3.76303 -5.4232,-2.54558 -10.293,-6.41928 -4.8698,-3.76303 -8.5221,-8.96486 l 7.4153,-7.96876 q 7.3047,8.96486 15.4948,13.05992 8.1902,4.20573 17.9298,4.20573 8.5221,0 15.0521,-2.65625 6.6406,-2.54558 11.1784,-7.52606 4.5377,-4.8698 6.862,-11.95314 2.4349,-6.97267 2.4349,-15.93752 v -13.94534 q -5.9766,8.3008 -15.1628,13.05992 -9.1862,4.64844 -21.9141,4.64844 -10.7357,0 -19.2579,-4.42709 -8.5221,-4.53776 -14.4987,-12.50653 -5.9766,-8.07944 -9.1862,-19.25784 -3.099,-11.1784 -3.099,-24.68102 z m 13.392,2.32423 q 0,10.51433 2.1029,19.58987 2.1028,8.96486 6.4192,15.60549 4.3165,6.64064 10.8464,10.40366 6.6406,3.76303 15.7162,3.76303 6.862,0 12.2852,-1.66016 5.5338,-1.66016 9.7396,-4.53777 4.2057,-2.98828 7.3047,-6.97266 3.0989,-3.98438 5.3125,-8.74351 V 160.431 q -1.8816,-4.64845 -4.8698,-8.85418 -2.8776,-4.31642 -7.0834,-7.52606 -4.095,-3.32031 -9.6289,-5.20183 -5.5339,-1.99219 -12.8386,-1.99219 -9.1862,0 -15.8268,3.87371 -6.6406,3.76302 -10.9571,10.40366 -4.3164,6.64063 -6.4192,15.71617 -2.1029,9.07553 -2.1029,19.47919 z"
       style="font-style:normal;font-variant:normal;font-weight:300;font-stretch:normal;font-size:226.667px;font-family:Roboto;-inkscape-font-specification:'Roboto Light';text-align:center;text-anchor:middle;fill:#444444;fill-opacity:1"
       id="path1764" /><path
       d="m 1434.4117,186.32947 q 0,-13.94533 3.099,-25.12373 3.2096,-11.28908 9.1862,-19.25784 5.9766,-7.96877 14.4987,-12.28518 8.6328,-4.31641 19.4792,-4.31641 12.8386,0 22.0248,5.20183 9.1862,5.09115 15.1628,14.27737 l 0.664,-17.26566 h 12.3959 v 117.64992 q 0,11.62111 -3.431,20.80732 -3.431,9.29689 -9.7396,15.71617 -6.1979,6.41928 -15.0521,9.85028 -8.8542,3.43099 -19.8112,3.43099 -5.6446,0 -11.5105,-1.32812 -5.8659,-1.21745 -11.3997,-3.76303 -5.4232,-2.54558 -10.293,-6.41928 -4.8698,-3.76303 -8.5222,-8.96486 l 7.4154,-7.96876 q 7.3047,8.96486 15.4948,13.05992 8.1901,4.20573 17.9297,4.20573 8.5222,0 15.0521,-2.65625 6.6407,-2.54558 11.1784,-7.52606 4.5378,-4.8698 6.862,-11.95314 2.4349,-6.97267 2.4349,-15.93752 v -13.94534 q -5.9765,8.3008 -15.1628,13.05992 -9.1862,4.64844 -21.914,4.64844 -10.7357,0 -19.2579,-4.42709 -8.5221,-4.53776 -14.4987,-12.50653 -5.9766,-8.07944 -9.1862,-19.25784 -3.099,-11.1784 -3.099,-24.68102 z m 13.392,2.32423 q 0,10.51433 2.1028,19.58987 2.1029,8.96486 6.4193,15.60549 4.3164,6.64064 10.8464,10.40366 6.6406,3.76303 15.7162,3.76303 6.8619,0 12.2851,-1.66016 5.5339,-1.66016 9.7396,-4.53777 4.2058,-2.98828 7.3047,-6.97266 3.099,-3.98438 5.3125,-8.74351 V 160.431 q -1.8815,-4.64845 -4.8698,-8.85418 -2.8776,-4.31642 -7.0833,-7.52606 -4.0951,-3.32031 -9.6289,-5.20183 -5.5339,-1.99219 -12.8386,-1.99219 -9.1862,0 -15.8268,3.87371 -6.6407,3.76302 -10.9571,10.40366 -4.3164,6.64063 -6.4193,15.71617 -2.1028,9.07553 -2.1028,19.47919 z"
       style="font-style:normal;font-variant:normal;font-weight:300;font-stretch:normal;font-size:226.667px;font-family:Roboto;-inkscape-font-specification:'Roboto Light';text-align:center;text-anchor:middle;fill:#444444;fill-opacity:1"
       id="path1766" /><path
       d="m 1580.2843,247.31264 h -13.2812 V 77.312378 h 13.2812 z"
       style="font-style:normal;font-variant:normal;font-weight:300;font-stretch:normal;font-size:226.667px;font-family:Roboto;-inkscape-font-specification:'Roboto Light';text-align:center;text-anchor:middle;fill:#444444;fill-opacity:1"
       id="path1768" /><path
       d="m 1662.7389,249.52618 q -11.7318,0 -21.5821,-4.31641 -9.8503,-4.42709 -17.0443,-12.1745 -7.0833,-7.85808 -11.0677,-18.59377 -3.9844,-10.7357 -3.9844,-23.57426 v -4.75912 q 0,-13.83466 4.0951,-25.01306 4.2057,-11.28908 11.289,-19.14716 7.0834,-7.96877 16.2696,-12.28518 9.2969,-4.31641 19.5899,-4.31641 11.3997,0 20.2539,4.09506 8.8542,4.09506 14.8307,11.39975 6.0873,7.3047 9.1863,17.37633 3.0989,10.07163 3.0989,22.02478 v 8.07943 h -85.4428 v 2.54558 q 0,9.85028 2.9883,18.59378 2.9883,8.63282 8.4114,15.0521 5.4232,6.41929 12.9493,10.18231 7.526,3.65235 16.7122,3.65235 10.6251,0 18.7045,-3.8737 8.1901,-3.87371 14.8308,-12.39585 l 8.3007,6.3086 q -2.9882,4.31641 -6.9726,8.19012 -3.8737,3.8737 -9.0756,6.75131 -5.2018,2.87761 -11.7317,4.53776 -6.53,1.66016 -14.6094,1.66016 z m -2.4349,-112.89079 q -7.5261,0 -13.9454,2.87761 -6.4193,2.87761 -11.3997,8.19011 -4.8698,5.31251 -8.0795,12.83856 -3.0989,7.41538 -4.2057,16.49091 h 71.8295 v -1.4388 q -0.2213,-7.52605 -2.4349,-14.49872 -2.2135,-7.08334 -6.5299,-12.50653 -4.2058,-5.42318 -10.5144,-8.63282 -6.3086,-3.32032 -14.72,-3.32032 z"
       style="font-style:normal;font-variant:normal;font-weight:300;font-stretch:normal;font-size:226.667px;font-family:Roboto;-inkscape-font-specification:'Roboto Light';text-align:center;text-anchor:middle;fill:#444444;fill-opacity:1"
       id="path1770" /><path
       d="m 1789.0216,138.84893 q -4.2057,-0.77474 -8.9649,-0.77474 -6.7513,0 -12.1745,1.99219 -5.4232,1.99219 -9.6289,5.64454 -4.095,3.54168 -6.9727,8.52215 -2.7669,4.8698 -4.427,10.84637 v 82.2332 H 1733.683 V 127.55985 h 12.9492 l 0.2214,19.03649 q 4.8698,-9.85027 13.1705,-15.49481 8.4115,-5.75522 20.586,-5.75522 2.4349,0 4.9805,0.44271 2.5456,0.44271 3.763,0.99609 z"
       style="font-style:normal;font-variant:normal;font-weight:300;font-stretch:normal;font-size:226.667px;font-family:Roboto;-inkscape-font-specification:'Roboto Light';text-align:center;text-anchor:middle;fill:#444444;fill-opacity:1"
       id="path1772" /></g></svg>
